<?xml version="1.0" encoding="utf-8"?>
<svg width="512" height="512" viewBox="0 0 512 512" xmlns="http://www.w3.org/2000/svg"
     xmlns:xlink="http://www.w3.org/1999/xlink">
  <defs>
    <svg viewBox="0 0 206.676 206.676" height="100%" width="100%" pointer-events="none" display="block" id="people-1" >
        <g>
            <path style="fill:#330C00;" d="M103.485,43.514v160.004c0,0-90.83,9.412-90.83-34.866c0,0,24.397,3.075,19.402-17.273
		c-6.332-25.796-2.79-67.574,0-90.408C34.847,38.136,103.485,43.514,103.485,43.514z"/>
            <path style="fill:#330C00;" d="M103.191,43.514v160.004c0,0,90.83,9.412,90.83-34.866c0,0-24.397,3.075-19.402-17.273
		c6.332-25.796,2.79-67.574,0-90.408C171.828,38.136,103.191,43.514,103.191,43.514z"/>
            <path style="fill:#00B497;" d="M105.07,179.723v-23.311c0,0,37.002-1.121,37.002,21.274L105.07,179.723z"/>
            <path style="fill:#00B497;" d="M101.9,179.723v-23.311c0,0-37.002-1.121-37.002,21.274L101.9,179.723z"/>
            <g>
                <g>
                    <rect x="88.788" y="156.41" style="fill:#FDCC9B;" width="29.395" height="32.923"/>
                    <path style="fill:#FCBC85;" d="M88.788,160.288c0,0,12.364,7.874,29.395,6.051v-9.929H88.788V160.288z"/>
                    <ellipse style="fill:#FCBC85;" cx="46.4" cy="105.36" rx="14.343" ry="16.364"/>
                    <ellipse style="fill:#FCBC85;" cx="160.568" cy="105.36" rx="14.343" ry="16.364"/>
                    <path style="fill:#FDCC9B;" d="M160.51,74.104c0-24.104-17.637-41.74-57.025-41.74c-39.39,0-57.026,17.637-57.026,41.74
				c0,24.104-4.115,87.597,57.026,87.597C164.626,161.701,160.51,98.209,160.51,74.104z"/>
                    <g>
                        <g>
                            <ellipse style="fill:#3B2519;" cx="75.709" cy="101.442" rx="6.173" ry="6.761"/>
                            <circle style="fill:#FFFFFF;" cx="73.018" cy="98.457" r="1.846"/>
                        </g>
                        <path style="fill:#684B37;" d="M65.834,86.865c2.919,1.117,7.606-3.799,18.336,0.478c1.955,0.78,3.123-6.668-8.378-6.668
					C65.834,80.675,64.07,86.189,65.834,86.865z"/>
                        <g>
                            <ellipse style="fill:#3B2519;" cx="132.023" cy="101.442" rx="6.173" ry="6.761"/>
                            <circle style="fill:#FFFFFF;" cx="129.332" cy="98.457" r="1.847"/>
                        </g>
                        <path style="fill:#684B37;" d="M141.135,86.865c-2.919,1.117-7.605-3.799-18.335,0.478c-1.955,0.78-3.123-6.668,8.378-6.668
					C141.135,80.675,142.899,86.189,141.135,86.865z"/>
                    </g>
                    <path style="fill:#FCBC85;" d="M103.485,125.223c-6.1,0-9.774-4.557-9.774-2.352c0,2.204,1.764,6.394,9.774,6.394
				c8.01,0,9.773-4.189,9.773-6.394C113.258,120.666,109.584,125.223,103.485,125.223z"/>
                    <path style="fill:#FCBC85;" d="M103.485,145.493c-2.11,0-3.381-1.576-3.381-0.813s0.61,2.212,3.381,2.212s3.38-1.449,3.38-2.212
				S105.594,145.493,103.485,145.493z"/>
                    <path style="fill:#F7945E;" d="M103.485,139.876c-9.669,0-15.493-3.938-15.493-2.94c0,0.997,2.796,4.924,15.493,4.924
				c12.697,0,15.493-3.927,15.493-4.924C118.978,135.939,113.153,139.876,103.485,139.876z"/>
                </g>
                <circle style="fill:#F9AA8D;" cx="67.771" cy="123.048" r="8.377"/>
                <circle style="fill:#F9AA8D;" cx="140.229" cy="123.048" r="8.377"/>
            </g>
            <path style="fill:#8FD6E7;" d="M103.485,169.638v37.038H39.112C39.112,191.685,69.681,169.638,103.485,169.638z"/>
            <path style="fill:#8FD6E7;" d="M103.485,169.638v37.038h64.372C167.857,191.685,137.289,169.638,103.485,169.638z"/>
            <path style="fill:#F6B1CF;" d="M103.485,204.999v-35.361c-9.417,0-18.551,1.752-26.874,4.544L103.485,204.999z"/>
            <path style="fill:#F6B1CF;" d="M103.485,204.999v-35.361c9.416,0,18.55,1.752,26.874,4.544L103.485,204.999z"/>
            <path style="fill:#F283B4;" d="M103.485,169.638c-6.849,0-13.545,0.939-19.9,2.507c0.905,5.501,4.62,16.787,19.9,16.787
		c15.279,0,18.994-11.286,19.899-16.787C117.03,170.576,110.334,169.638,103.485,169.638z"/>
            <path style="fill:#FDCC9B;" d="M88.788,170.92c0,0-0.001,13.239,14.697,13.239c14.697,0,14.697-13.239,14.697-13.239
		S102.933,165.368,88.788,170.92z"/>
            <path style="fill:#3ABDAA;" d="M80.992,172.401c0.44-2.861-17.119-0.752-16.976,7.321c0.145,8.073,19.401,14.284,24.692,17.224
		c5.291,2.939,14.697,9.729,14.697,9.729s1.764-6.82-6.467-12.082C88.709,189.333,80.404,176.223,80.992,172.401z"/>
            <path style="fill:#3ABDAA;" d="M125.763,172.401c-0.44-2.861,17.119-0.752,16.976,7.321c-0.145,8.073-19.401,14.284-24.692,17.224
		c-5.291,2.939-14.697,9.729-14.697,9.729s-1.764-6.82,6.467-12.082C118.046,189.333,126.351,176.223,125.763,172.401z"/>
            <path style="fill:#401900;" d="M103.485,0C37.346,0,28.528,57.747,28.528,100.303c0,42.557,22.031,67.27,39.243,74.172
		c0,0-27.485-48.708-13.964-93.8c11.063-36.894,49.678-26,49.678-26s38.613-10.895,49.677,26c13.521,45.092-13.964,93.8-13.964,93.8
		c17.213-6.902,39.244-31.615,39.244-74.172C178.442,57.747,169.624,0,103.485,0z"/>
            <path style="fill:#401900;" d="M125.85,64.864c0,0-24.824,12.444-46.746,9.946c-21.921-2.499-30.341,20.228-29.003,35.269
		l-7.316-33.476l13.228-26.485l37.698-19.4l35.621,1.646l16.893,14.668l14.344,17.832l10.083,11.739l-4.851,36.126l-10.268,12.349
		C155.534,125.078,164.824,78.728,125.85,64.864z"/>
        </g>
    </svg>
    <svg viewBox="0 0 202.413 202.413" height="100%" width="100%" pointer-events="none" display="block" id="people-2" >
        <g>
            <path style="fill:#1C0D06;" d="M101.422,110.407v92.006H37.049c0,0,0.002-39.459-7.055-70.891L101.422,110.407z"/>
            <path style="fill:#1C0D06;" d="M100.927,110.407v92.006H165.3c0,0-0.002-39.459,7.055-70.891L100.927,110.407z"/>
            <g>
                <g>
                    <rect x="86.724" y="152.148" style="fill:#FDCC9B;" width="29.395" height="32.922"/>
                    <path style="fill:#FCBC85;" d="M86.724,156.025c0,0,12.365,7.874,29.395,6.05v-9.928H86.724V156.025z"/>
                    <ellipse style="fill:#FCBC85;" cx="44.337" cy="101.098" rx="14.343" ry="16.364"/>
                    <ellipse style="fill:#FCBC85;" cx="158.505" cy="101.098" rx="14.343" ry="16.364"/>
                    <path style="fill:#FDCC9B;" d="M158.447,69.842c0-24.103-17.637-41.741-57.026-41.741c-39.389,0-57.025,17.637-57.025,41.741
				c0,24.104-4.115,87.597,57.025,87.597C162.562,157.439,158.447,93.946,158.447,69.842z"/>
                    <g>
                        <g>
                            <ellipse style="fill:#3B2519;" cx="73.645" cy="97.179" rx="6.173" ry="6.761"/>
                            <circle style="fill:#FFFFFF;" cx="70.954" cy="94.194" r="1.846"/>
                        </g>
                        <path style="fill:#36221E;" d="M63.77,82.602c2.919,1.118,7.605-3.798,18.335,0.478c1.956,0.78,3.123-6.668-8.378-6.668
					C63.77,76.412,62.007,81.927,63.77,82.602z"/>
                        <g>
                            <ellipse style="fill:#3B2519;" cx="129.96" cy="97.179" rx="6.173" ry="6.761"/>
                            <circle style="fill:#FFFFFF;" cx="127.268" cy="94.194" r="1.846"/>
                        </g>
                        <path style="fill:#36221E;" d="M139.072,82.602c-2.919,1.118-7.606-3.798-18.335,0.478c-1.956,0.78-3.123-6.668,8.377-6.668
					C139.072,76.412,140.836,81.927,139.072,82.602z"/>
                    </g>
                    <path style="fill:#FCBC85;" d="M101.421,120.96c-6.099,0-9.773-4.556-9.773-2.352c0,2.205,1.764,6.394,9.773,6.394
				c8.011,0,9.774-4.189,9.774-6.394C111.195,116.403,107.52,120.96,101.421,120.96z"/>
                    <path style="fill:#FCBC85;" d="M101.421,141.23c-2.109,0-3.38-1.576-3.38-0.813c0,0.763,0.609,2.211,3.38,2.211
				c2.771,0,3.381-1.448,3.381-2.211C104.802,139.654,103.53,141.23,101.421,141.23z"/>
                    <path style="fill:#F7945E;" d="M101.421,135.613c-9.668,0-15.492-3.936-15.492-2.939c0,0.997,2.795,4.924,15.492,4.924
				c12.697,0,15.493-3.926,15.493-4.924C116.914,131.676,111.089,135.613,101.421,135.613z"/>
                </g>
                <circle style="fill:#F9AA8D;" cx="65.707" cy="118.784" r="8.377"/>
                <circle style="fill:#F9AA8D;" cx="138.164" cy="118.784" r="8.377"/>
            </g>
            <path style="fill:#C05371;" d="M101.421,165.375v37.038H37.049C37.049,187.421,67.617,165.375,101.421,165.375z"/>
            <path style="fill:#C05371;" d="M101.421,165.375v37.038h64.373C165.794,187.421,135.225,165.375,101.421,165.375z"/>
            <path style="fill:#C05371;" d="M101.421,165.375v37.038h64.373C165.794,187.421,135.225,165.375,101.421,165.375z"/>
            <path style="fill:#98375E;" d="M101.421,165.375c-14.605,0-28.594,4.125-39.787,10.009c8.461,12.851,21.058,23.381,39.787,23.381
		c18.73,0,31.327-10.531,39.787-23.381C130.015,169.5,116.026,165.375,101.421,165.375z"/>
            <path style="fill:#C05371;" d="M101.421,165.375c-11.439,0-22.473,2.56-32.112,6.481c6.077,10.609,16.005,20.386,32.112,20.386
		c16.107,0,26.035-9.777,32.113-20.386C123.894,167.935,112.861,165.375,101.421,165.375z"/>
            <path style="fill:#FDCC9B;" d="M86.724,166.797c0,0,4.3,11.776,14.697,11.776c10.398,0,14.697-11.777,14.697-11.777
		S100.87,161.245,86.724,166.797z"/>
            <path style="fill:#98375E;" d="M101.421,165.375c-8.766,0-17.297,1.503-25.151,3.96c4.164,8.464,11.695,17.379,25.151,17.379
		c13.457,0,20.987-8.916,25.152-17.379C118.719,166.878,110.186,165.375,101.421,165.375z"/>
            <path style="fill:#C05371;" d="M82.642,167.607c2.454,6.538,7.74,15.217,18.779,15.217c11.04,0,16.326-8.679,18.78-15.217
		c-6.019-1.405-12.334-2.232-18.78-2.232C94.975,165.375,88.661,166.202,82.642,167.607z"/>
            <path style="fill:#FDCC9B;" d="M116.118,166.796c0,0-1.91,11.777-14.697,11.777c-12.786,0-14.697-11.776-14.697-11.776
		s5.732-3.289,14.697-3.289C110.387,163.508,116.118,166.796,116.118,166.796z"/>
            <path style="fill:#342620;" d="M101.421,0.012V0c-0.073,0-0.141,0.005-0.214,0.006C101.133,0.005,101.065,0,100.991,0v0.012
		C34.804,0.266,23.827,57.886,27.787,114.64c3.969,56.879,37.92,76.72,37.92,76.72c-18.517-19.4-13.966-64.198-13.966-64.198
		c8.079,12.081,19.213,13.047,19.213,13.047c-21.207-13.673-20.239-60.843-5.247-63.797c14.142-2.786,33.36-16.896,35.5-18.49
		c2.139,1.595,21.356,15.704,35.498,18.49c14.992,2.954,15.961,50.124-5.246,63.797c0,0,11.134-0.966,19.214-13.047
		c0,0,4.551,44.797-13.968,64.198c0,0,33.952-19.841,37.921-76.72C178.585,57.886,167.609,0.266,101.421,0.012z"/>
        </g>
    </svg>
    <svg viewBox="0 0 219.582 219.582" height="100%" width="100%" pointer-events="none" display="block" id="people-3" >
        <g>
            <path style="fill:#371C06;" d="M55.626,154.767c-1.764,0.441,0.87,18.505,8.377,27.777c0,0-0.488-13.107,3.115-17.637
		c0,0,12.628,6.467,5.639,20.87c0,0,7.561,0.796,11.528-11.359c0,0-3.053,11.427,7.513,17.934
		c10.565,6.507,17.993,2.459,17.993,2.459v-60.18H52.775L55.626,154.767z"/>
            <path style="fill:#371C06;" d="M164.055,154.767c1.764,0.441-0.87,18.505-8.377,27.777c0,0,0.488-13.107-3.115-17.637
		c0,0-12.628,6.467-5.639,20.87c0,0-7.561,0.796-11.529-11.359c0,0,3.053,11.427-7.512,17.934
		c-10.565,6.507-17.993,2.459-17.993,2.459v-60.18h57.016L164.055,154.767z"/>
            <path style="fill:#371C06;" d="M113.239,0C61.426,0,74.371,51.591,74.371,51.591h38.868h38.868C152.107,51.591,165.054,0,113.239,0
		z"/>
            <g>
                <g>
                    <rect x="95.162" y="169.316" style="fill:#FDCC9B;" width="29.395" height="32.923"/>
                    <path style="fill:#FCBC85;" d="M95.162,173.194c0,0,12.364,7.874,29.395,6.051v-9.929H95.162V173.194z"/>
                    <ellipse style="fill:#FCBC85;" cx="52.775" cy="118.267" rx="14.343" ry="16.364"/>
                    <ellipse style="fill:#FCBC85;" cx="166.943" cy="118.267" rx="14.343" ry="16.364"/>
                    <path style="fill:#FDCC9B;" d="M166.885,87.011c0-24.104-17.637-41.74-57.025-41.74c-39.39,0-57.026,17.637-57.026,41.74
				c0,24.104-4.115,87.597,57.026,87.597C171,174.607,166.885,111.115,166.885,87.011z"/>
                    <g>
                        <g>
                            <ellipse style="fill:#3B2519;" cx="82.083" cy="114.349" rx="6.173" ry="6.761"/>
                            <circle style="fill:#FFFFFF;" cx="79.392" cy="111.363" r="1.846"/>
                        </g>
                        <path style="fill:#4C2D19;" d="M72.208,99.771c2.919,1.117,7.606-3.799,18.335,0.478c1.956,0.78,3.124-6.668-8.377-6.668
					C72.208,93.581,70.444,99.096,72.208,99.771z"/>
                        <g>
                            <ellipse style="fill:#3B2519;" cx="138.397" cy="114.349" rx="6.173" ry="6.761"/>
                            <circle style="fill:#FFFFFF;" cx="135.706" cy="111.363" r="1.847"/>
                        </g>
                        <path style="fill:#4C2D19;" d="M147.51,99.771c-2.919,1.117-7.605-3.799-18.335,0.478c-1.956,0.78-3.123-6.668,8.378-6.668
					C147.51,93.581,149.273,99.096,147.51,99.771z"/>
                    </g>
                    <path style="fill:#FCBC85;" d="M109.859,138.129c-6.1,0-9.774-4.557-9.774-2.352c0,2.204,1.764,6.393,9.774,6.393
				c8.01,0,9.773-4.189,9.773-6.393C119.633,133.572,115.959,138.129,109.859,138.129z"/>
                    <path style="fill:#FCBC85;" d="M109.859,158.4c-2.109,0-3.381-1.576-3.381-0.814s0.61,2.212,3.381,2.212
				c2.771,0,3.38-1.449,3.38-2.212S111.969,158.4,109.859,158.4z"/>
                    <path style="fill:#F7945E;" d="M109.859,152.782c-9.668,0-15.493-3.938-15.493-2.939c0,0.997,2.796,4.924,15.493,4.924
				c12.697,0,15.492-3.927,15.492-4.924C125.351,148.845,119.527,152.782,109.859,152.782z"/>
                </g>
                <circle style="fill:#F9AA8D;" cx="74.145" cy="135.954" r="8.378"/>
                <circle style="fill:#F9AA8D;" cx="146.603" cy="135.954" r="8.377"/>
            </g>
            <path style="fill:#FDC16E;" d="M109.859,182.544v37.038H45.486C45.486,204.591,76.055,182.544,109.859,182.544z"/>
            <path style="fill:#FDC16E;" d="M109.859,182.544v37.038h64.372C174.231,204.591,143.663,182.544,109.859,182.544z"/>
            <path style="fill:#FDCC9B;" d="M95.162,183.826l14.697,26.275c0.879,0,14.697-26.275,14.697-26.275S109.308,178.275,95.162,183.826
		z"/>
            <polygon style="fill:#F68E4D;" points="109.859,219.582 109.859,210.102 105.009,202.827 	"/>
            <polygon style="fill:#F68E4D;" points="109.859,219.582 109.859,210.102 114.318,202.827 	"/>
            <path style="fill:#4D423E;" d="M89.136,219.582l-3.04-33.805c0,0-6.456-0.273-14.215,5.365l-6.444,28.44H89.136z"/>
            <path style="fill:#4D423E;" d="M130.582,219.582l3.04-33.805c0,0,6.456-0.273,14.215,5.365l6.445,28.44H130.582z"/>
            <path style="fill:#4C2D19;" d="M109.859,18.521c-90.83,0-78.926,99.648-67.021,123.649c11.905,24,0,40.373,0,40.373
		c20.282-8.377,16.461-40.373,16.461-40.373c6.525,7.539,18.373,10.053,18.373,10.053c-17.636-7.393-24.854-62.264,4.029-64.478
		c28.884-2.214,60.344-12.787,60.344-12.787s20.068,55.321,6.066,77.265c0,0,9.779-6.658,14.644-17.049
		c0,0-4.396,30.614,15.005,47.369c0,0-10.141-29.041,0-47.369C187.902,116.847,200.689,18.521,109.859,18.521z"/>
            <path style="fill:#F68E4D;" d="M95.162,179.519l8.535,8.929l6.162,21.654l-8.818-13.227l-9.921,5.365l-8.597-15.462
		C82.523,186.777,89.944,180.021,95.162,179.519z"/>
            <path style="fill:#F68E4D;" d="M124.556,179.519l-8.536,8.929l-6.161,21.654l8.818-13.227l9.92,5.365l8.598-15.462
		C137.195,186.777,129.774,180.021,124.556,179.519z"/>
        </g>
    </svg>
    <svg viewBox="0 0 204.348 204.348" height="100%" width="100%" pointer-events="none" display="block" id="people-4"  >
        <g>
            <path style="fill:#86461B;" d="M183.045,111.688c0,0,12.558,9.032,4.749,22.759c0,0,14.423,9.875,3.399,26.029
		c0,0,10.564,15.359,0,25.354c0,0,2.535,11.932-11.611,12.492c0,0-0.592,6.026-12.936,6.026l-64.373-14.991v-80.202L183.045,111.688
		z"/>
            <path style="fill:#86461B;" d="M21.303,111.688c0,0-12.558,9.032-4.748,22.759c0,0-14.423,9.875-3.4,26.029
		c0,0-10.564,15.359,0,25.354c0,0-2.535,11.932,11.611,12.492c0,0,0.592,6.026,12.936,6.026l64.373-14.991v-80.202L21.303,111.688z"
            />
            <path style="fill:#703910;" d="M58.129,139.533c0,0-8.173,12.392,1.204,17.219c0,0-7.951,7.275-2.252,13.792
		c0,0-15.267,4.467-5.566,18.033s50.759,7.393,50.759,7.393v-64.815L58.129,139.533z"/>
            <path style="fill:#703910;" d="M146.219,139.533c0,0,8.174,12.392-1.204,17.219c0,0,7.952,7.275,2.252,13.792
		c0,0,15.267,4.467,5.566,18.033c-9.7,13.566-50.759,7.393-50.759,7.393v-64.815L146.219,139.533z"/>
            <g>
                <g>
                    <rect x="87.377" y="154.083" style="fill:#FDCC9B;" width="29.395" height="32.923"/>
                    <path style="fill:#FCBC85;" d="M87.377,157.961c0,0,12.365,7.874,29.395,6.051v-9.929H87.377V157.961z"/>
                    <ellipse style="fill:#FCBC85;" cx="44.99" cy="103.033" rx="14.343" ry="16.364"/>
                    <ellipse style="fill:#FCBC85;" cx="159.158" cy="103.033" rx="14.343" ry="16.364"/>
                    <path style="fill:#FDCC9B;" d="M159.1,71.777c0-24.104-17.637-41.74-57.025-41.74c-39.39,0-57.026,17.637-57.026,41.74
				c0,24.104-4.115,87.597,57.026,87.597C163.215,159.374,159.1,95.882,159.1,71.777z"/>
                    <g>
                        <g>
                            <ellipse style="fill:#3B2519;" cx="74.299" cy="99.115" rx="6.173" ry="6.761"/>
                            <circle style="fill:#FFFFFF;" cx="71.607" cy="96.13" r="1.846"/>
                        </g>
                        <path style="fill:#86461B;" d="M64.424,84.538c2.918,1.117,7.605-3.799,18.334,0.478c1.956,0.78,3.124-6.668-8.377-6.668
					C64.424,78.347,62.661,83.862,64.424,84.538z"/>
                        <g>
                            <ellipse style="fill:#3B2519;" cx="130.613" cy="99.115" rx="6.173" ry="6.761"/>
                            <circle style="fill:#FFFFFF;" cx="127.921" cy="96.13" r="1.847"/>
                        </g>
                        <path style="fill:#86461B;" d="M139.725,84.538c-2.919,1.117-7.605-3.799-18.335,0.478c-1.955,0.78-3.123-6.668,8.378-6.668
					C139.725,78.347,141.489,83.862,139.725,84.538z"/>
                    </g>
                    <path style="fill:#FCBC85;" d="M102.075,122.895c-6.1,0-9.774-4.557-9.774-2.352c0,2.204,1.764,6.393,9.774,6.393
				c8.01,0,9.773-4.189,9.773-6.393C111.848,118.339,108.174,122.895,102.075,122.895z"/>
                    <path style="fill:#FCBC85;" d="M102.075,143.166c-2.109,0-3.381-1.576-3.381-0.813c0,0.763,0.61,2.212,3.381,2.212
				s3.381-1.449,3.381-2.212C105.455,141.59,104.184,143.166,102.075,143.166z"/>
                    <path style="fill:#F7945E;" d="M102.075,137.549c-9.668,0-15.493-3.938-15.493-2.939c0,0.997,2.796,4.924,15.493,4.924
				c12.697,0,15.492-3.927,15.492-4.924C117.567,133.611,111.743,137.549,102.075,137.549z"/>
                </g>
                <circle style="fill:#F9AA8D;" cx="66.361" cy="120.72" r="8.378"/>
                <circle style="fill:#F9AA8D;" cx="138.818" cy="120.72" r="8.377"/>
            </g>
            <path style="fill:#F7ACBA;" d="M102.075,167.31v37.038H37.702C37.702,189.357,68.271,167.31,102.075,167.31z"/>
            <path style="fill:#F7ACBA;" d="M102.075,167.31v37.038h64.372C166.447,189.357,135.878,167.31,102.075,167.31z"/>
            <path style="fill:#F5919D;" d="M101.883,167.31c-7.271,0-14.715,1.005-21.933,2.721c0.049,0.063,8.006,10.213,21.933,10.213
		c12.898,0,21.472-8.692,22.715-10.03C117.138,168.383,109.417,167.31,101.883,167.31z"/>
            <path style="fill:#FDCC9B;" d="M87.377,168.592c0,0,4.299,5.332,14.697,5.332c10.398,0,14.697-5.332,14.697-5.332
		S101.524,163.041,87.377,168.592z"/>
            <path style="fill:#86461B;" d="M180.861,75.051c16.453,14.07,3.347,27.982,3.347,27.982c5.464,16.364-13.055,20.406-13.055,20.406
		s-6.762,15.652-16.021,11.008c-9.26-4.645-4.409-20.047-4.409-20.047c-5.908-6.394,0.44-13.228,0.44-13.228
		c-7.055-6.614-0.882-19.842-0.882-19.842c-7.055-2.204-9.259-11.464-9.259-11.464c-11.023-0.441-14.11-15.433-14.11-15.433
		s-3.527,12.787-17.637,8.378c0,0-12.786,11.464-22.046,2.646c0,0-13.228,9.259-20.282-0.882c0,0,0,10.582-14.551,12.786
		c0,0,5.732,14.992-1.764,21.605c0,0,8.818,15.873,1.323,22.487c0,0,13.228,11.023,6.173,18.078
		c-7.055,7.055-18.519,1.764-18.96-8.378c0,0-16.755,2.205-15.873-16.314c0,0-12.346-16.313-2.204-29.542
		c0,0-8.378-15.873,3.526-27.777c0,0-1.322-22.928,14.992-27.778c0,0,6.613-19.842,24.25-16.755c0,0,11.464-16.755,29.542-8.378
		c0,0,19.842-11.464,31.306,1.764c0,0,11.554-7.495,20.106,6.614c0,0,14.727,2.792,16.049,17.049c0,0,20.574,4.409,14.992,22.046
		C175.856,52.083,191.243,57.414,180.861,75.051z"/>
            <path style="fill:#D85B72;" d="M70.58,173.536c-19.172,7.632-32.879,20.785-32.879,30.813h41.32L70.58,173.536z"/>
            <path style="fill:#BA396A;" d="M82.38,204.348c0,0-8.231-24.251-9.112-33.805c0,0-4.482,0.273-9.554,4.557
		c0,0,6.467,20.576,10.582,29.101L82.38,204.348z"/>
            <path style="fill:#D85B72;" d="M133.569,173.536c19.172,7.632,32.878,20.785,32.878,30.813h-41.319L133.569,173.536z"/>
            <path style="fill:#BA396A;" d="M121.769,204.348c0,0,8.23-24.251,9.112-33.805c0,0,4.482,0.273,9.554,4.557
		c0,0-6.467,20.576-10.582,29.101L121.769,204.348z"/>
        </g>
    </svg>
    <svg viewBox="0 0 207.964 207.964" height="100%" width="100%" pointer-events="none" display="block" id="people-5" >
        <g>
            <path style="fill:#432B1F;" d="M40.634,148.18c6.989,19.495-3.968,55.375-3.968,55.375h63.346V93.325l-69.52,13.325
		C30.493,106.649,34.315,130.553,40.634,148.18z"/>
            <path style="fill:#432B1F;" d="M159.452,148.18c-6.989,19.495,3.969,55.375,3.969,55.375h-63.347V93.325l69.519,13.325
		C169.593,106.649,165.772,130.553,159.452,148.18z"/>
            <g>
                <g>
                    <rect x="85.315" y="157.699" style="fill:#FDCC9B;" width="29.395" height="32.922"/>
                    <path style="fill:#FCBC85;" d="M85.315,161.577c0,0,12.365,7.874,29.395,6.05v-9.928H85.315V161.577z"/>
                    <ellipse style="fill:#FCBC85;" cx="42.928" cy="106.649" rx="14.343" ry="16.364"/>
                    <ellipse style="fill:#FCBC85;" cx="157.096" cy="106.649" rx="14.343" ry="16.364"/>
                    <path style="fill:#FDCC9B;" d="M157.038,75.394c0-24.103-17.637-41.741-57.025-41.741c-39.39,0-57.026,17.637-57.026,41.741
				c0,24.104-4.115,87.597,57.026,87.597C161.153,162.99,157.038,99.498,157.038,75.394z"/>
                    <g>
                        <g>
                            <ellipse style="fill:#3B2519;" cx="72.237" cy="102.731" rx="6.173" ry="6.761"/>
                            <circle style="fill:#FFFFFF;" cx="69.545" cy="99.746" r="1.846"/>
                        </g>
                        <path style="fill:#51362A;" d="M62.362,88.154c2.918,1.118,7.606-3.798,18.334,0.478c1.956,0.78,3.124-6.668-8.377-6.668
					C62.362,81.964,60.598,87.479,62.362,88.154z"/>
                        <g>
                            <ellipse style="fill:#3B2519;" cx="128.55" cy="102.731" rx="6.173" ry="6.761"/>
                            <circle style="fill:#FFFFFF;" cx="125.859" cy="99.746" r="1.847"/>
                        </g>
                        <path style="fill:#51362A;" d="M137.663,88.154c-2.919,1.118-7.605-3.798-18.335,0.478c-1.955,0.78-3.123-6.668,8.378-6.668
					C137.663,81.964,139.426,87.479,137.663,88.154z"/>
                    </g>
                    <path style="fill:#FCBC85;" d="M100.012,126.511c-6.1,0-9.774-4.556-9.774-2.352c0,2.205,1.764,6.394,9.774,6.394
				c8.01,0,9.773-4.189,9.773-6.394C109.786,121.955,106.112,126.511,100.012,126.511z"/>
                    <path style="fill:#FCBC85;" d="M100.012,146.782c-2.109,0-3.381-1.576-3.381-0.813s0.61,2.211,3.381,2.211
				s3.381-1.448,3.381-2.211S102.122,146.782,100.012,146.782z"/>
                    <path style="fill:#F7945E;" d="M100.012,141.165c-9.668,0-15.493-3.936-15.493-2.939c0,0.998,2.796,4.924,15.493,4.924
				c12.697,0,15.492-3.926,15.492-4.924C115.504,137.228,109.68,141.165,100.012,141.165z"/>
                </g>
                <circle style="fill:#F9AA8D;" cx="64.298" cy="124.336" r="8.378"/>
                <circle style="fill:#F9AA8D;" cx="136.756" cy="124.336" r="8.377"/>
            </g>
            <path style="fill:#694B74;" d="M100.012,170.927v37.038H35.639C35.639,192.973,66.208,170.927,100.012,170.927z"/>
            <path style="fill:#694B74;" d="M100.012,170.927v37.038h64.372C164.384,192.973,133.816,170.927,100.012,170.927z"/>
            <path style="fill:#563C60;" d="M99.821,170.927c-7.271,0-14.715,1.005-21.933,2.72c0.049,0.063,8.006,10.214,21.933,10.214
		c12.898,0,21.472-8.693,22.715-10.03C115.076,172,107.355,170.927,99.821,170.927z"/>
            <path style="fill:#FDCC9B;" d="M85.315,172.209c0,0,4.299,5.332,14.697,5.332c10.398,0,14.697-5.332,14.697-5.332
		S99.461,166.657,85.315,172.209z"/>
            <path style="fill:#51362A;" d="M151.747,24.541C114.709-19.552,44.162-1.915,28.584,58.933
		c-15.577,60.847,12.05,89.247,12.05,89.247C30.04,112.321,54.744,75.247,75.908,74.806c21.165-0.441,54.675-12.346,54.675-12.346
		s5.625,28.622,23.81,39.132c13.669,7.9,8.477,31.122,4.949,46.588C172.569,143.149,211.712,42.619,151.747,24.541z"/>
        </g>
    </svg>
    <svg viewBox="0 0 206.363 206.363" height="100%" width="100%" pointer-events="none" display="block" id="people-6"  >
        <g>
            <path style="fill:#9E773D;" d="M104.516,201.925V96.721H53.213c0,0-9.802,43.534,12.891,64.669
		C66.103,161.39,55.247,201.925,104.516,201.925z"/>
            <path style="fill:#9E773D;" d="M105.505,201.925V96.721h51.302c0,0,9.803,43.534-12.891,64.669
		C143.916,161.39,154.773,201.925,105.505,201.925z"/>
            <g>
                <g>
                    <rect x="89.818" y="156.098" style="fill:#FDCC9B;" width="29.395" height="32.923"/>
                    <path style="fill:#FCBC85;" d="M89.818,159.976c0,0,12.364,7.874,29.395,6.051v-9.929H89.818V159.976z"/>
                    <ellipse style="fill:#FCBC85;" cx="47.431" cy="105.048" rx="14.343" ry="16.364"/>
                    <ellipse style="fill:#FCBC85;" cx="161.599" cy="105.048" rx="14.343" ry="16.364"/>
                    <path style="fill:#FDCC9B;" d="M161.541,73.793c0-24.103-17.637-41.741-57.025-41.741c-39.39,0-57.026,17.637-57.026,41.741
				c0,24.104-4.115,87.597,57.026,87.597C165.656,161.39,161.541,97.897,161.541,73.793z"/>
                    <g>
                        <g>
                            <ellipse style="fill:#3B2519;" cx="76.74" cy="101.13" rx="6.173" ry="6.761"/>
                            <circle style="fill:#FFFFFF;" cx="74.048" cy="98.145" r="1.846"/>
                        </g>
                        <path style="fill:#BF904B;" d="M66.864,86.553c2.919,1.117,7.606-3.798,18.335,0.478c1.956,0.78,3.124-6.668-8.377-6.668
					C66.864,80.363,65.1,85.878,66.864,86.553z"/>
                        <g>
                            <ellipse style="fill:#3B2519;" cx="133.054" cy="101.13" rx="6.173" ry="6.761"/>
                            <circle style="fill:#FFFFFF;" cx="130.362" cy="98.145" r="1.847"/>
                        </g>
                        <path style="fill:#BF904B;" d="M142.166,86.553c-2.919,1.117-7.605-3.798-18.335,0.478c-1.956,0.78-3.123-6.668,8.378-6.668
					C142.166,80.363,143.93,85.878,142.166,86.553z"/>
                    </g>
                    <path style="fill:#FCBC85;" d="M104.516,124.91c-6.1,0-9.774-4.557-9.774-2.351c0,2.204,1.764,6.394,9.774,6.394
				c8.01,0,9.773-4.189,9.773-6.394C114.289,120.354,110.615,124.91,104.516,124.91z"/>
                    <path style="fill:#FCBC85;" d="M104.516,145.181c-2.109,0-3.381-1.575-3.381-0.814c0,0.763,0.61,2.212,3.381,2.212
				c2.771,0,3.38-1.449,3.38-2.212C107.895,143.606,106.625,145.181,104.516,145.181z"/>
                    <path style="fill:#F7945E;" d="M104.516,139.564c-9.668,0-15.493-3.937-15.493-2.939s2.796,4.924,15.493,4.924
				c12.697,0,15.492-3.927,15.492-4.924S114.183,139.564,104.516,139.564z"/>
                </g>
                <circle style="fill:#F9AA8D;" cx="68.802" cy="122.735" r="8.378"/>
                <circle style="fill:#F9AA8D;" cx="141.259" cy="122.735" r="8.377"/>
            </g>
            <path style="fill:#9D777B;" d="M104.516,169.326v37.037H40.142C40.142,191.372,70.711,169.326,104.516,169.326z"/>
            <path style="fill:#9D777B;" d="M104.516,169.326v37.037h64.372C168.888,191.372,138.319,169.326,104.516,169.326z"/>
            <path style="fill:#7B5C60;" d="M71.804,176.055l17.439,30.309h15.272v-4.461L83.003,172.26
		C79.102,173.301,75.358,174.578,71.804,176.055z"/>
            <path style="fill:#7B5C60;" d="M137.226,176.055l-17.44,30.309h-15.271v-4.461l21.512-29.643
		C129.928,173.301,133.672,174.578,137.226,176.055z"/>
            <path style="fill:#FFFFFF;" d="M80.621,172.892c5.63,10.071,18.247,33.472,23.895,33.472v-37.037
		C96.219,169.326,88.125,170.666,80.621,172.892z"/>
            <path style="fill:#FFFFFF;" d="M128.409,172.892c-5.629,10.071-18.246,33.472-23.894,33.472v-37.037
		C112.811,169.326,120.906,170.666,128.409,172.892z"/>
            <path style="fill:#BF904B;" d="M149.637,20.706c0,0-20.344-27.19-60.614-19.254C48.752,9.389,24.454,42.759,25.296,76.291
		c1.323,52.661,33.371,63.007,40.967,71.719c-5.94-12.816-14.658-37.356-12.894-53.641c1.326-12.245,7.056-16.344,7.056-16.344
		c12.867,6.708,19.841-7.721,19.841-7.721c1.764,13.421,27.631-6.389,27.631-6.389s-2.939,8.394,6.394,11.068
		c9.333,2.675,26.97-17.903,26.97-17.903s0.294,23.414,12.199,23.281c0,0,3.656,7.225,2.774,20.767
		c-0.882,13.542-6.596,32.011-10.913,44.239c11.225-6.364,35.769-21.05,35.769-61.644C181.089,43.131,171.682,24.38,149.637,20.706z
		"/>
            <path style="fill:#FDCC9B;" d="M89.818,170.747c0,0,4.299,11.777,14.697,11.777c10.398,0,14.697-11.777,14.697-11.777
		S103.965,165.195,89.818,170.747z"/>
            <path style="fill:#C7C5C4;" d="M85.735,171.558c2.455,6.537,7.74,15.217,18.78,15.217c11.039,0,16.325-8.68,18.779-15.217
		c-6.019-1.405-12.334-2.232-18.779-2.232C98.069,169.326,91.755,170.152,85.735,171.558z"/>
            <path style="fill:#FDCC9B;" d="M119.213,170.747c0,0-1.911,11.777-14.697,11.777c-12.787,0-14.697-11.777-14.697-11.777
		s5.731-3.288,14.697-3.288C113.48,167.459,119.213,170.747,119.213,170.747z"/>
        </g>
    </svg>
    <svg viewBox="0 0 203.736 203.736" height="100%" width="100%" pointer-events="none" display="block" id="people-7">
        <g>
            <path style="fill:#543C2A;" d="M101.867,66.139v131.395h60.26c0,0,11.449-59.365,11.168-95.113
		C173.014,66.673,101.867,66.139,101.867,66.139z"/>
            <path style="fill:#543C2A;" d="M101.867,66.139v131.395H41.609c0,0-11.449-59.365-11.168-95.113
		C30.721,66.673,101.867,66.139,101.867,66.139z"/>
            <g>
                <g>
                    <rect x="87.17" y="153.47" style="fill:#FDCC9B;" width="29.395" height="32.923"/>
                    <path style="fill:#FCBC85;" d="M87.17,157.348c0,0,12.365,7.874,29.395,6.051v-9.929H87.17V157.348z"/>
                    <ellipse style="fill:#FCBC85;" cx="44.784" cy="102.42" rx="14.343" ry="16.364"/>
                    <ellipse style="fill:#FCBC85;" cx="158.952" cy="102.42" rx="14.343" ry="16.364"/>
                    <path style="fill:#FDCC9B;" d="M158.894,71.165c0-24.104-17.637-41.741-57.026-41.741c-39.389,0-57.025,17.637-57.025,41.741
				c0,24.104-4.115,87.597,57.025,87.597C163.009,158.762,158.894,95.269,158.894,71.165z"/>
                    <g>
                        <g>
                            <ellipse style="fill:#3B2519;" cx="74.092" cy="98.502" rx="6.173" ry="6.761"/>
                            <circle style="fill:#FFFFFF;" cx="71.401" cy="95.517" r="1.846"/>
                        </g>
                        <path style="fill:#684B37;" d="M64.217,83.925c2.919,1.117,7.605-3.798,18.335,0.478c1.956,0.78,3.123-6.668-8.378-6.668
					C64.217,77.735,62.453,83.25,64.217,83.925z"/>
                        <g>
                            <ellipse style="fill:#3B2519;" cx="130.406" cy="98.502" rx="6.173" ry="6.761"/>
                            <circle style="fill:#FFFFFF;" cx="127.715" cy="95.517" r="1.846"/>
                        </g>
                        <path style="fill:#684B37;" d="M139.519,83.925c-2.919,1.117-7.606-3.798-18.335,0.478c-1.956,0.78-3.123-6.668,8.377-6.668
					C139.519,77.735,141.282,83.25,139.519,83.925z"/>
                    </g>
                    <path style="fill:#FCBC85;" d="M101.867,122.283c-6.099,0-9.773-4.557-9.773-2.352c0,2.204,1.764,6.394,9.773,6.394
				c8.011,0,9.774-4.189,9.774-6.394C111.642,117.726,107.967,122.283,101.867,122.283z"/>
                    <path style="fill:#FCBC85;" d="M101.867,142.553c-2.109,0-3.38-1.575-3.38-0.814c0,0.763,0.61,2.212,3.38,2.212
				c2.771,0,3.381-1.449,3.381-2.212C105.248,140.978,103.978,142.553,101.867,142.553z"/>
                    <path style="fill:#F7945E;" d="M101.867,136.936c-9.668,0-15.492-3.937-15.492-2.939s2.795,4.924,15.492,4.924
				s15.493-3.927,15.493-4.924S111.535,136.936,101.867,136.936z"/>
                </g>
                <circle style="fill:#F9AA8D;" cx="66.154" cy="120.108" r="8.377"/>
                <circle style="fill:#F9AA8D;" cx="138.611" cy="120.108" r="8.377"/>
            </g>
            <path style="fill:#F5A860;" d="M101.867,166.699v37.037H37.495C37.495,188.745,68.064,166.699,101.867,166.699z"/>
            <path style="fill:#F5A860;" d="M101.867,166.699v37.037h64.373C166.24,188.745,135.672,166.699,101.867,166.699z"/>
            <path style="fill:#F18B45;" d="M89.6,167.651c-0.189,0.027-0.379,0.065-0.569,0.094c-3.963,0.634-7.829,1.529-11.543,2.653
		l24.38,33.338v-18.518L90.87,167.501C90.449,167.56,90.02,167.587,89.6,167.651z"/>
            <path style="fill:#F18B45;" d="M114.135,167.651c0.19,0.027,0.38,0.065,0.57,0.094c3.963,0.634,7.829,1.529,11.543,2.653
		l-24.381,33.338v-18.518l10.998-17.716C113.286,167.56,113.716,167.587,114.135,167.651z"/>
            <path style="fill:#684B37;" d="M101.867,0C35.436,0,27.651,46.991,30.441,102.42c2.79,55.43,49.824,82.797,49.824,82.797
		S27.56,109.79,71.401,43.651c0,0-8.232,14.157-7.786,26.015c0,0,10.328-3.527,38.253-3.527c27.926,0,38.253,3.527,38.253,3.527
		c0.447-11.858-7.785-26.015-7.785-26.015c43.841,66.138-8.865,141.566-8.865,141.566s47.035-27.367,49.825-82.797
		C176.085,46.991,168.3,0,101.867,0z"/>
            <path style="fill:#FDCC9B;" d="M87.17,167.981l14.697,24.408l14.697-24.409C116.565,167.98,101.317,162.428,87.17,167.981z"/>
        </g>
    </svg>
    <svg viewBox="0 0 206.612 206.612" height="100%" width="100%" pointer-events="none" display="block" id="people-8" >
        <g>
            <path style="fill:#D65128;" d="M31.276,122.205c0,0,8.933,18.483,6.727,34.142c-2.204,15.659-14.607,23.035-19.898,13.228
		c0,0-26.014,37.038,85.98,37.038V105.298L31.276,122.205z"/>
            <path style="fill:#D65128;" d="M177.592,117.629c0,0-11.189,23.06-8.983,38.718c2.204,15.659,14.607,23.035,19.898,13.228
		c0,0,26.014,37.038-85.98,37.038V105.298L177.592,117.629z"/>
            <g>
                <g>
                    <rect x="89.388" y="156.347" style="fill:#FDCC9B;" width="29.395" height="32.922"/>
                    <path style="fill:#FCBC85;" d="M89.388,160.225c0,0,12.364,7.874,29.394,6.05v-9.928H89.388V160.225z"/>
                    <ellipse style="fill:#916A50;" cx="47.001" cy="105.298" rx="14.343" ry="16.364"/>
                    <ellipse style="fill:#916A50;" cx="161.169" cy="105.298" rx="14.343" ry="16.364"/>
                    <path style="fill:#FDCC9B;" d="M161.111,74.042c0-24.104-17.637-41.741-57.025-41.741c-39.39,0-57.026,17.637-57.026,41.741
				c0,24.104-4.115,87.597,57.026,87.597C165.226,161.638,161.111,98.146,161.111,74.042z"/>
                    <g>
                        <g>
                            <ellipse style="fill:#3B2519;" cx="76.31" cy="101.379" rx="6.173" ry="6.761"/>
                            <circle style="fill:#FFFFFF;" cx="73.618" cy="98.394" r="1.846"/>
                        </g>
                        <path style="fill:#D96E27;" d="M66.434,86.802c2.919,1.118,7.606-3.798,18.335,0.478c1.956,0.78,3.124-6.668-8.377-6.668
					C66.434,80.612,64.67,86.127,66.434,86.802z"/>
                        <g>
                            <ellipse style="fill:#3B2519;" cx="132.624" cy="101.379" rx="6.173" ry="6.761"/>
                            <circle style="fill:#FFFFFF;" cx="129.932" cy="98.394" r="1.847"/>
                        </g>
                        <path style="fill:#D96E27;" d="M141.736,86.802c-2.919,1.118-7.605-3.798-18.335,0.478c-1.956,0.78-3.123-6.668,8.378-6.668
					C141.736,80.612,143.5,86.127,141.736,86.802z"/>
                    </g>
                    <path style="fill:#FCBC85;" d="M104.086,125.159c-6.1,0-9.774-4.556-9.774-2.352c0,2.205,1.764,6.394,9.774,6.394
				c8.01,0,9.773-4.189,9.773-6.394C113.859,120.603,110.185,125.159,104.086,125.159z"/>
                    <path style="fill:#FCBC85;" d="M104.086,145.43c-2.109,0-3.381-1.576-3.381-0.813c0,0.763,0.61,2.211,3.381,2.211
				c2.771,0,3.38-1.448,3.38-2.211C107.465,143.854,106.195,145.43,104.086,145.43z"/>
                    <path style="fill:#F7945E;" d="M104.086,139.813c-9.668,0-15.493-3.936-15.493-2.939c0,0.997,2.796,4.924,15.493,4.924
				c12.697,0,15.492-3.926,15.492-4.924C119.578,135.876,113.753,139.813,104.086,139.813z"/>
                </g>
                <circle style="fill:#F9AA8D;" cx="68.372" cy="122.984" r="8.378"/>
                <circle style="fill:#F9AA8D;" cx="140.829" cy="122.984" r="8.377"/>
            </g>
            <path style="fill:#F6A2B1;" d="M104.086,169.575v37.038H39.712C39.712,191.621,70.281,169.575,104.086,169.575z"/>
            <path style="fill:#F6A2B1;" d="M104.086,169.575v37.038h64.372C168.458,191.621,137.889,169.575,104.086,169.575z"/>
            <path style="fill:#FDCC9B;" d="M89.388,170.857l14.697,26.276c0.879,0,14.697-26.276,14.697-26.276S103.535,165.305,89.388,170.857
		z"/>
            <path style="fill:#F38191;" d="M89.388,166.55l8.535,8.928l6.162,21.655l-8.818-13.228l-9.921,5.365l-8.597-15.461
		C76.75,173.808,84.17,167.052,89.388,166.55z"/>
            <path style="fill:#F38191;" d="M118.783,166.55l-8.536,8.928l-6.161,21.655l8.818-13.228l9.92,5.365l8.598-15.461
		C131.421,173.808,124.001,167.052,118.783,166.55z"/>
            <polygon style="fill:#F38191;" points="104.086,206.612 104.086,197.133 99.235,189.858 	"/>
            <polygon style="fill:#F38191;" points="104.086,206.612 104.086,197.133 108.544,189.858 	"/>
            <path style="fill:#D96E27;" d="M146.826,17.016c0,0-35.313-26.675-78.454-13.227C27.35,16.575,26.483,70.81,27.805,101.381
		c1.323,30.571,11.907,34.244,22.487,29.981c13.994-5.638,0-23.222,0-23.222c6.614-6.761,3.969-19.206,3.969-19.206
		c10.361-0.384,14.11-17.244,14.11-17.244c20.156,7.769,25.939-7.496,25.939-7.496c18.886,10.141,33.774-7.937,33.774-7.937
		s9.303,19.342,21.121,17.196c0,0-3.107,18.597,4.262,21.165c0,0-7.895,23.81,2.446,31.085c10.341,7.275,27.096,0.042,26.655-36.77
		C182.128,52.122,175.512,13.488,146.826,17.016z"/>
        </g>
    </svg>
    <svg viewBox="0 0 216.212 216.212" height="100%" width="100%" pointer-events="none" display="block" id="man-1">
        <g>
            <path style="fill:#684B37;" d="M48.903,138.801c0,0,5.683,11.436,0,25.352c-3.421,8.378,7.161,3.087,10.247,0
		c0,0,3.087,9.896-3.086,17.735c-6.173,7.838,11.613,5.314,17.05-10.841c0,0,2.996,13.829-7.027,23.971
		c-10.023,10.141,42.019,6.173,42.019,6.173v-66.433L48.903,138.801z"/>
            <path style="fill:#543C2A;" d="M168.031,138.801c0,0-5.683,11.436,0,25.352c3.421,8.378-7.161,3.087-10.247,0
		c0,0-3.086,9.896,3.086,17.735c6.173,7.838-11.613,5.314-17.05-10.841c0,0-2.996,13.829,7.027,23.971
		c10.023,10.141-42.019,6.173-42.019,6.173v-66.433L168.031,138.801z"/>
            <g>
                <rect x="94.13" y="165.947" style="fill:#FDCC9B;" width="29.395" height="32.923"/>
                <path style="fill:#FCBC85;" d="M94.131,169.825c0,0,12.365,7.874,29.394,6.051v-9.929H94.131V169.825z"/>
                <ellipse style="fill:#FCBC85;" cx="51.744" cy="114.897" rx="14.343" ry="16.364"/>
                <ellipse style="fill:#FCBC85;" cx="165.912" cy="114.897" rx="14.343" ry="16.364"/>
                <path style="fill:#FDCC9B;" d="M165.854,83.641c0-24.104-17.637-41.741-57.026-41.741c-39.389,0-57.026,17.637-57.026,41.741
			c0,24.104-4.115,87.597,57.026,87.597C169.969,171.239,165.854,107.745,165.854,83.641z"/>
                <g>
                    <g>
                        <ellipse style="fill:#3B2519;" cx="81.052" cy="110.979" rx="6.173" ry="6.761"/>
                        <circle style="fill:#FFFFFF;" cx="78.361" cy="107.994" r="1.846"/>
                    </g>
                    <path style="fill:#684B37;" d="M71.177,94.224c2.919,1.459,7.606-4.96,18.335,0.625c1.956,1.018,3.123-8.709-8.377-8.709
				C71.177,86.14,69.413,93.342,71.177,94.224z"/>
                    <g>
                        <ellipse style="fill:#3B2519;" cx="137.366" cy="110.979" rx="6.173" ry="6.761"/>
                        <circle style="fill:#FFFFFF;" cx="134.675" cy="107.994" r="1.846"/>
                    </g>
                    <path style="fill:#684B37;" d="M146.479,94.224c-2.919,1.459-7.606-4.96-18.335,0.625c-1.956,1.018-3.123-8.709,8.378-8.709
				C146.479,86.14,148.243,93.342,146.479,94.224z"/>
                </g>
                <path style="fill:#FCBC85;" d="M108.828,134.759c-6.1,0-9.774-4.557-9.774-2.352c0,2.204,1.764,6.394,9.774,6.394
			c8.01,0,9.774-4.189,9.774-6.394C118.602,130.203,114.927,134.759,108.828,134.759z"/>
                <path style="fill:#FCBC85;" d="M108.828,155.03c-2.11,0-3.381-1.575-3.381-0.814c0,0.763,0.61,2.212,3.381,2.212
			c2.771,0,3.38-1.449,3.38-2.212C112.208,153.454,110.937,155.03,108.828,155.03z"/>
                <path style="fill:#F7945E;" d="M108.828,149.412c-9.668,0-15.493-3.937-15.493-2.939s2.796,4.924,15.493,4.924
			c12.697,0,15.493-3.927,15.493-4.924S118.496,149.412,108.828,149.412z"/>
            </g>
            <path style="fill:#C1B397;" d="M108.828,179.175v37.037H37.401C37.401,201.221,75.024,179.175,108.828,179.175z"/>
            <path style="fill:#C1B397;" d="M108.828,179.175v37.037h71.427C180.255,201.221,142.632,179.175,108.828,179.175z"/>
            <path style="fill:#684B37;" d="M35.341,114.897c-7.387-36.365,1.764-64.06-1.764-68.028c-3.527-3.968-9.259,1.323-9.7-1.764
		c-0.441-3.086,9.259-7.937,13.524-12.787c4.264-4.85,3.231-19.842,7.199-15.433c3.968,4.41,0,14.551,0,14.551
		c45.856-63.052,121.695-15.432,130.072,6.614c8.377,22.046,22.046,37.479,16.314,37.479c-6.716,0-10.731-9.259-10.731-9.259
		s6.322,17.637,3.235,43.57c-3.086,25.934-30.863,41.649-26.715,34.793c8.487-14.025,2.023-40.415,2.023-40.415
		c-0.441,2.675-4.85,6.584-4.994,1.929c-0.726-23.626-14.407-30.618-14.407-30.618s4.85,7.496-2.032,7.055
		c-20.626-1.321-34.123-9.7-34.123-9.7s4.85,9.7,0,9.7c-16.338,0-32.667-9.7-32.667-9.7s-8.205,16.748-7.979,31.335
		c0.081,5.262-5.21-0.471-5.21-4.439c0,0-5.779,31.07,4.341,46.462C66.176,153.006,40,137.837,35.341,114.897z"/>
            <path style="fill:#9D937C;" d="M84.267,182.628l24.561,33.584v-18.518l-11.032-17.771
		C93.241,180.513,88.701,181.435,84.267,182.628z"/>
            <path style="fill:#9D937C;" d="M133.388,182.628l-24.56,33.584v-18.518l11.032-17.771
		C124.414,180.513,128.955,181.435,133.388,182.628z"/>
            <path style="fill:#FDCC9B;" d="M94.131,180.457l14.697,22.718l14.697-22.719C123.525,180.456,108.277,174.905,94.131,180.457z"/>
        </g>
    </svg>
    <svg viewBox="0 0 198.496 198.496" height="100%" width="100%" pointer-events="none" display="block" id="man-2" >
        <g>
            <g>
                <rect x="84.55" y="148.231" style="fill:#FDCC9B;" width="29.395" height="32.922"/>
                <path style="fill:#FCBC85;" d="M84.551,152.108c0,0,12.365,7.874,29.395,6.05v-9.928H84.551V152.108z"/>
                <ellipse style="fill:#FCBC85;" cx="42.164" cy="97.181" rx="14.343" ry="16.364"/>
                <ellipse style="fill:#FCBC85;" cx="156.332" cy="97.181" rx="14.343" ry="16.364"/>
                <path style="fill:#FDCC9B;" d="M156.274,65.925c0-24.103-17.637-41.741-57.026-41.741c-39.389,0-57.026,17.637-57.026,41.741
			c0,24.104-4.115,87.597,57.026,87.597C160.389,153.522,156.274,90.029,156.274,65.925z"/>
                <g>
                    <g>
                        <ellipse style="fill:#3B2519;" cx="71.472" cy="93.262" rx="6.173" ry="6.761"/>
                        <circle style="fill:#FFFFFF;" cx="68.781" cy="90.277" r="1.846"/>
                    </g>
                    <path style="fill:#51362A;" d="M61.597,76.507c2.919,1.46,7.606-4.96,18.335,0.625c1.956,1.018,3.123-8.708-8.377-8.708
				C61.597,68.424,59.833,75.626,61.597,76.507z"/>
                    <g>
                        <ellipse style="fill:#3B2519;" cx="127.786" cy="93.262" rx="6.173" ry="6.761"/>
                        <circle style="fill:#FFFFFF;" cx="125.095" cy="90.277" r="1.846"/>
                    </g>
                    <path style="fill:#51362A;" d="M136.899,76.507c-2.919,1.46-7.606-4.96-18.335,0.625c-1.956,1.018-3.123-8.708,8.378-8.708
				C136.899,68.424,138.662,75.626,136.899,76.507z"/>
                </g>
                <path style="fill:#FCBC85;" d="M99.248,117.043c-6.1,0-9.774-4.556-9.774-2.352c0,2.205,1.764,6.394,9.774,6.394
			c8.01,0,9.774-4.189,9.774-6.394C109.022,112.486,105.347,117.043,99.248,117.043z"/>
                <path style="fill:#FCBC85;" d="M99.248,137.313c-2.11,0-3.381-1.576-3.381-0.813s0.61,2.211,3.381,2.211
			c2.771,0,3.38-1.448,3.38-2.211S101.357,137.313,99.248,137.313z"/>
                <path style="fill:#F7945E;" d="M99.248,131.696c-9.668,0-15.493-3.937-15.493-2.939c0,0.998,2.796,4.924,15.493,4.924
			c12.697,0,15.493-3.926,15.493-4.924C114.74,127.759,108.916,131.696,99.248,131.696z"/>
            </g>
            <path style="fill:#F7941E;" d="M99.248,161.458v37.038H27.821C27.821,183.504,65.444,161.458,99.248,161.458z"/>
            <path style="fill:#F7941E;" d="M99.248,161.458v37.038h71.427C170.675,183.504,133.052,161.458,99.248,161.458z"/>
            <path style="fill:#F36C21;" d="M99.248,161.458c-7.19,0-14.552,1.005-21.689,2.72c0.048,0.063,7.916,10.214,21.689,10.214
		c12.754,0,21.233-8.693,22.462-10.03C114.332,162.531,106.698,161.458,99.248,161.458z"/>
            <path style="fill:#FDCC9B;" d="M84.55,162.74c0,0,4.299,5.332,14.697,5.332c10.398,0,14.698-5.332,14.698-5.332
		S98.697,157.189,84.55,162.74z"/>
            <path style="fill:#51362A;" d="M146.132,19.041c0,0-21.164-26.896-65.152-16.755C36.993,12.426,33.697,38.882,35.02,64.621
		c1.323,25.74,4.85,40.84,9.022,38.974c4.172-1.867,2.001-18.857,2.442-22.778c0.441-3.921,4.409-21.653,31.162-19.007
		c26.752,2.646,49.296-7.055,49.296-7.055s9.075,11.471,15.047,13.669c11.934,4.391,8.02,33.67,12.696,33.67
		S182.288,34.473,146.132,19.041z"/>
        </g>
    </svg>
    <svg viewBox="0 0 222.034 222.034" height="100%" width="100%" pointer-events="none" display="block" id="man-3"  >
        <g>
            <path style="fill:#524039;" d="M112.681,195.081V171.77c0,0,37.002-1.121,37.002,21.275L112.681,195.081z"/>
            <path style="fill:#524039;" d="M109.511,195.081V171.77c0,0-37.002-1.121-37.002,21.275L109.511,195.081z"/>
            <g>
                <rect x="96.319" y="171.769" style="fill:#FDCC9B;" width="29.395" height="32.922"/>
                <path style="fill:#FCBC85;" d="M96.319,175.646c0,0,12.365,7.874,29.395,6.05v-9.928H96.319V175.646z"/>
                <ellipse style="fill:#FCBC85;" cx="53.933" cy="120.719" rx="14.343" ry="16.364"/>
                <ellipse style="fill:#FCBC85;" cx="168.101" cy="120.719" rx="14.343" ry="16.364"/>
                <path style="fill:#FDCC9B;" d="M168.043,89.463c0-24.104-17.637-41.741-57.025-41.741c-39.39,0-57.026,17.637-57.026,41.741
			c0,24.104-4.115,87.597,57.026,87.597C172.158,177.06,168.043,113.567,168.043,89.463z"/>
                <g>
                    <g>
                        <ellipse style="fill:#3B2519;" cx="83.241" cy="116.8" rx="6.173" ry="6.761"/>
                        <circle style="fill:#FFFFFF;" cx="80.55" cy="113.815" r="1.846"/>
                    </g>
                    <path style="fill:#401900;" d="M73.366,100.045c2.918,1.46,7.606-4.96,18.335,0.625c1.955,1.018,3.123-8.708-8.378-8.708
				C73.366,91.962,71.603,99.164,73.366,100.045z"/>
                    <g>
                        <ellipse style="fill:#3B2519;" cx="139.555" cy="116.8" rx="6.173" ry="6.761"/>
                        <circle style="fill:#FFFFFF;" cx="136.864" cy="113.815" r="1.847"/>
                    </g>
                    <path style="fill:#401900;" d="M148.668,100.045c-2.919,1.46-7.605-4.96-18.335,0.625c-1.956,1.018-3.123-8.708,8.378-8.708
				C148.668,91.962,150.431,99.164,148.668,100.045z"/>
                </g>
                <path style="fill:#FCBC85;" d="M111.017,140.581c-6.1,0-9.774-4.556-9.774-2.352c0,2.205,1.764,6.394,9.774,6.394
			c8.01,0,9.773-4.189,9.773-6.394C120.791,136.024,117.116,140.581,111.017,140.581z"/>
                <path style="fill:#FCBC85;" d="M111.017,160.851c-2.11,0-3.381-1.576-3.381-0.813s0.61,2.211,3.381,2.211
			c2.77,0,3.38-1.448,3.38-2.211S113.127,160.851,111.017,160.851z"/>
                <path style="fill:#F7945E;" d="M111.017,155.234c-9.669,0-15.493-3.937-15.493-2.939c0,0.998,2.795,4.924,15.493,4.924
			c12.697,0,15.492-3.926,15.492-4.924C126.509,151.297,120.685,155.234,111.017,155.234z"/>
            </g>
            <path style="fill:#81665D;" d="M111.017,184.996v37.038H39.589C39.589,207.042,77.213,184.996,111.017,184.996z"/>
            <path style="fill:#81665D;" d="M111.017,184.996v37.038h71.427C182.444,207.042,144.821,184.996,111.017,184.996z"/>
            <polygon style="fill:#935125;" points="111.175,222.034 88.126,195.77 96.319,197.974 111.175,203.515 	"/>
            <polygon style="fill:#935125;" points="111.017,222.034 134.067,195.77 125.873,197.974 111.017,203.515 	"/>
            <path style="fill:#5D2F06;" d="M110.686,184.996c-7.756,0-15.71,1.171-23.368,3.141c1.69,6.66,6.948,17.029,23.368,17.029
		c16.419,0,21.677-10.368,23.368-17.029C126.396,186.167,118.442,184.996,110.686,184.996z"/>
            <path style="fill:#FDCC9B;" d="M96.319,186.278c0,0,0,13.68,14.698,13.68c14.697,0,14.697-13.68,14.697-13.68
		S110.466,180.727,96.319,186.278z"/>
            <path style="fill:#401900;" d="M193.763,80.562c7.055-6.054,0-15.368,0-15.368c4.409-10.71-5.291-16.298-5.291-16.298
		c0.882-11.642-9.259-13.505-9.259-13.505c-1.765-10.71-11.112-10.245-11.112-10.245c-4.058-11.642-14.344-9.779-14.344-9.779
		c-3.851-9.779-14.966-6.519-14.966-6.519c-6.469-8.382-15.495-1.397-15.495-1.397C122.497,3.725,118.806,0,111.017,0
		c-7.79,0-11.48,3.725-12.28,7.451c0,0-9.026-6.985-15.496,1.397c0,0-11.115-3.26-14.965,6.519c0,0-10.286-1.863-14.343,9.779
		c0,0-9.348-0.466-11.112,10.245c0,0-10.142,1.863-9.26,13.505c0,0-9.7,5.588-5.291,16.298c0,0-7.055,9.313,0,15.368
		c0,0-10.141,9.301-0.882,17.224c-6.614,13.804,4.409,21.095,4.409,21.095c-4.409,15.501,10.142,18.68,10.142,18.68
		c0.478,10.163,11.994,11.456,11.994,11.456s2.557,7.451,10.017,3.042c7.459-4.409-3.051-20.272-3.051-20.272
		c6.173-6.985,0-18.247,0-18.247c6.966-5.341,0-15.753,0-15.753c9.259-0.938,7.377-13.033,7.377-13.033
		c9.142,1.863,14.12-8.02,14.12-8.02c10.475,4.553,16.341-2.69,16.341-2.69c8.737,6.054,12.28,0,12.28,0s3.543,6.054,12.279,0
		c0,0,5.866,7.244,16.341,2.69c0,0,4.979,9.883,14.12,8.02c0,0-1.882,12.095,7.378,13.033c0,0-6.966,10.412,0,15.753
		c0,0-6.173,11.262,0,18.247c0,0-10.511,15.864-3.052,20.272c7.461,4.408,10.018-3.042,10.018-3.042s11.517-1.293,11.993-11.456
		c0,0,14.551-3.179,10.142-18.68c0,0,11.023-7.291,4.409-21.095C203.905,89.863,193.763,80.562,193.763,80.562z"/>
            <path style="fill:#614C45;" d="M88.603,187.759c0.44-2.861-17.12-0.752-16.976,7.322c0.145,8.074,19.401,14.283,24.692,17.223
		c5.291,2.939,14.698,9.73,14.698,9.73s1.763-6.82-6.467-12.082C96.319,204.691,88.015,191.581,88.603,187.759z"/>
            <path style="fill:#614C45;" d="M133.589,187.759c-0.44-2.861,17.119-0.752,16.976,7.322c-0.145,8.074-19.401,14.283-24.692,17.223
		c-5.291,2.939-14.855,9.73-14.855,9.73s-1.605-6.82,6.625-12.082C125.873,204.691,134.177,191.581,133.589,187.759z"/>
        </g>
    </svg>
    <svg viewBox="0 0 200.796 200.796" height="100%" width="100%" pointer-events="none" display="block" id="man-4" >
        <g>
            <g>
                <rect x="85.701" y="150.53" style="fill:#FDCC9B;" width="29.395" height="32.923"/>
                <path style="fill:#FCBC85;" d="M85.701,154.408c0,0,12.364,7.874,29.395,6.051v-9.929H85.701V154.408z"/>
                <ellipse style="fill:#FCBC85;" cx="43.314" cy="99.48" rx="14.343" ry="16.364"/>
                <ellipse style="fill:#FCBC85;" cx="157.482" cy="99.48" rx="14.343" ry="16.364"/>
                <path style="fill:#FDCC9B;" d="M157.424,68.225c0-24.104-17.637-41.74-57.025-41.74c-39.39,0-57.026,17.637-57.026,41.74
			c0,24.104-4.115,87.597,57.026,87.597C161.539,155.821,157.424,92.329,157.424,68.225z"/>
                <g>
                    <g>
                        <ellipse style="fill:#3B2519;" cx="72.623" cy="95.562" rx="6.173" ry="6.761"/>
                        <circle style="fill:#FFFFFF;" cx="69.931" cy="92.577" r="1.846"/>
                    </g>
                    <path style="fill:#36221E;" d="M62.748,78.807c2.918,1.46,7.606-4.96,18.335,0.625c1.955,1.018,3.123-8.708-8.378-8.708
				C62.748,70.724,60.984,77.926,62.748,78.807z"/>
                    <g>
                        <ellipse style="fill:#3B2519;" cx="128.937" cy="95.562" rx="6.173" ry="6.761"/>
                        <circle style="fill:#FFFFFF;" cx="126.245" cy="92.577" r="1.847"/>
                    </g>
                    <path style="fill:#36221E;" d="M138.049,78.807c-2.919,1.46-7.605-4.96-18.335,0.625c-1.955,1.018-3.123-8.708,8.378-8.708
				C138.049,70.724,139.813,77.926,138.049,78.807z"/>
                </g>
                <path style="fill:#FCBC85;" d="M100.399,119.343c-6.1,0-9.774-4.557-9.774-2.352c0,2.204,1.764,6.393,9.774,6.393
			c8.01,0,9.773-4.189,9.773-6.393C110.172,114.786,106.497,119.343,100.399,119.343z"/>
                <path style="fill:#FCBC85;" d="M100.399,139.613c-2.11,0-3.381-1.576-3.381-0.813c0,0.763,0.61,2.212,3.381,2.212
			c2.77,0,3.38-1.449,3.38-2.212C103.778,138.037,102.508,139.613,100.399,139.613z"/>
                <path style="fill:#F7945E;" d="M100.399,133.996c-9.669,0-15.493-3.938-15.493-2.939c0,0.997,2.796,4.924,15.493,4.924
			c12.697,0,15.492-3.927,15.492-4.924C115.891,130.059,110.066,133.996,100.399,133.996z"/>
            </g>
            <path style="fill:#98375E;" d="M100.399,163.758v37.038h71.427C171.825,185.805,134.202,163.758,100.399,163.758z"/>
            <path style="fill:#98375E;" d="M100.399,163.758v37.038H28.971C28.971,185.805,66.594,163.758,100.399,163.758z"/>
            <path style="fill:#C05371;" d="M100.661,163.758c-7.19,0-14.552,1.005-21.689,2.721c0.048,0.063,7.916,10.213,21.689,10.213
		c12.755,0,21.232-8.692,22.462-10.03C115.746,164.831,108.111,163.758,100.661,163.758z"/>
            <path style="fill:#FDCC9B;" d="M85.701,165.04c0,0,4.299,5.891,14.698,5.891c10.398,0,14.697-5.891,14.697-5.891
		S99.847,159.488,85.701,165.04z"/>
            <g>
                <path style="fill:#C05371;" d="M71.117,168.595c-1.245,0.395-2.475,0.81-3.693,1.243v30.958h3.693V168.595z"/>
                <path style="fill:#C05371;" d="M56.996,200.796h8.792v-30.374c-3.042,1.133-5.983,2.38-8.792,3.711V200.796z"/>
            </g>
            <g>
                <path style="fill:#C05371;" d="M129.659,168.595c1.244,0.395,2.475,0.81,3.692,1.243v30.958h-3.692V168.595z"/>
                <path style="fill:#C05371;" d="M143.779,200.796h-8.792v-30.374c3.041,1.133,5.982,2.38,8.792,3.711V200.796z"/>
            </g>
            <path style="fill:#342620;" d="M36.171,53.886C39.404,16.306,69.975,0,100.399,0c30.424,0,60.994,16.306,64.227,53.886
		c3.233,37.581-6.467,67.398-11.695,63.786c-5.227-3.611,2.766-52.695-13.526-49.623c-25.72,4.85-68.989-16.535-68.989-16.535
		s0.123,12.832-10.031,19.21c-19.731,12.394-7.291,43.337-12.518,46.948C42.637,121.283,32.937,91.467,36.171,53.886z"/>
            <path style="fill:#342620;" d="M100.729,146.68v12.529c-16.314,0-25.502-6.004-26.493-8.679c-0.991-2.675,7.534,1.499,11.796,0
		C90.294,149.031,93.527,146.68,100.729,146.68z"/>
            <path style="fill:#342620;" d="M100.399,146.68v12.529c16.313,0,25.502-6.004,26.493-8.679c0.99-2.675-7.534,1.499-11.796,0
		C110.833,149.031,107.6,146.68,100.399,146.68z"/>
        </g>
    </svg>
    <svg viewBox="0 0 203.118 203.118" height="100%" width="100%" pointer-events="none" display="block" id="man-5" >
        <g>
            <g>
                <rect x="86.861" y="152.853" style="fill:#FDCC9B;" width="29.395" height="32.923"/>
                <path style="fill:#FCBC85;" d="M86.862,156.73c0,0,12.364,7.874,29.394,6.051v-9.929H86.862V156.73z"/>
                <ellipse style="fill:#FCBC85;" cx="44.475" cy="101.803" rx="14.343" ry="16.364"/>
                <ellipse style="fill:#FCBC85;" cx="158.643" cy="101.803" rx="14.343" ry="16.364"/>
                <path style="fill:#FDCC9B;" d="M158.585,70.547c0-24.103-17.637-41.74-57.025-41.74c-39.39,0-57.026,17.637-57.026,41.74
			c0,24.104-4.115,87.597,57.026,87.597C162.7,158.144,158.585,94.651,158.585,70.547z"/>
                <g>
                    <g>
                        <ellipse style="fill:#3B2519;" cx="73.783" cy="97.885" rx="6.173" ry="6.761"/>
                        <circle style="fill:#FFFFFF;" cx="71.092" cy="94.899" r="1.846"/>
                    </g>
                    <path style="fill:#4C2D19;" d="M63.908,81.129c2.919,1.46,7.606-4.96,18.335,0.625c1.956,1.018,3.123-8.708-8.377-8.708
				C63.908,73.046,62.145,80.248,63.908,81.129z"/>
                    <g>
                        <ellipse style="fill:#3B2519;" cx="130.098" cy="97.885" rx="6.173" ry="6.761"/>
                        <circle style="fill:#FFFFFF;" cx="127.406" cy="94.899" r="1.846"/>
                    </g>
                    <path style="fill:#4C2D19;" d="M139.21,81.129c-2.919,1.46-7.607-4.96-18.335,0.625c-1.956,1.018-3.123-8.708,8.377-8.708
				C139.21,73.046,140.974,80.248,139.21,81.129z"/>
                </g>
                <path style="fill:#FCBC85;" d="M101.56,121.665c-6.1,0-9.774-4.557-9.774-2.352c0,2.204,1.764,6.394,9.774,6.394
			c8.01,0,9.773-4.189,9.773-6.394C111.333,117.108,107.658,121.665,101.56,121.665z"/>
                <path style="fill:#FCBC85;" d="M101.56,141.936c-2.11,0-3.381-1.576-3.381-0.813s0.609,2.212,3.381,2.212
			c2.77,0,3.38-1.449,3.38-2.212S103.669,141.936,101.56,141.936z"/>
                <path style="fill:#F7945E;" d="M101.56,136.318c-9.669,0-15.493-3.938-15.493-2.939c0,0.997,2.796,4.924,15.493,4.924
			c12.696,0,15.492-3.927,15.492-4.924C117.052,132.381,111.228,136.318,101.56,136.318z"/>
            </g>
            <path style="fill:#F6A4B7;" d="M101.56,166.08v37.038H30.132C30.132,188.127,67.755,166.08,101.56,166.08z"/>
            <path style="fill:#F6A4B7;" d="M101.56,166.08v37.038h71.427C172.986,188.127,135.363,166.08,101.56,166.08z"/>
            <path style="fill:#FDCC9B;" d="M86.861,167.362c0,0,4.299,5.332,14.697,5.332c10.398,0,14.697-5.332,14.697-5.332
		S101.008,161.811,86.861,167.362z"/>
            <path style="fill:#665853;" d="M80.836,203.118l-3.04-33.805c0,0-6.456-0.891-14.215,4.746l-6.445,29.059H80.836z"/>
            <polygon style="fill:#665853;" points="101.559,172.694 101.559,203.118 91.418,203.118 93.402,189.119 87.56,182.945 	"/>
            <path style="fill:#665853;" d="M122.282,203.118l3.04-33.805c0,0,6.456-0.891,14.215,4.746l6.444,29.059H122.282z"/>
            <polygon style="fill:#665853;" points="101.56,172.694 101.56,203.118 111.7,203.118 109.716,189.119 115.559,182.945 	"/>
            <path style="fill:#F2788F;" d="M116.256,163.729l-14.697,8.966l15.493,15.433l11.51-17.912
		C128.562,170.215,121.033,162.807,116.256,163.729z"/>
            <path style="fill:#F2788F;" d="M86.861,163.729l14.697,8.966l-15.492,15.433l-11.51-17.912
		C74.557,170.215,82.085,162.807,86.861,163.729z"/>
            <path style="fill:#4C2D19;" d="M164.611,28.659c-1.384-2.727-5.291-3.086-7.349-4.262c-2.059-1.176-2.059-6.173-5.879-8.23
		c-3.821-2.058-4.41,1.176-7.084,0.588c-2.675-0.588-5.263-5.879-8.792-7.055c-3.53-1.177-6.759,1.176-9.404,0.587
		c-2.645-0.587-4.409-6.173-9.052-5.878c-4.643,0.294-4.764,3.527-5.719,3.233C110.378,7.349,107.291,0,101.56,0
		c-5.732,0-8.819,7.349-9.774,7.643c-0.955,0.294-1.076-2.939-5.719-3.233c-4.643-0.295-6.406,5.291-9.052,5.878
		c-2.646,0.589-5.874-1.764-9.404-0.587c-3.529,1.176-6.117,6.467-8.792,7.055c-2.674,0.588-3.262-2.646-7.084-0.588
		c-3.82,2.058-3.82,7.055-5.878,8.23c-2.059,1.176-5.965,1.535-7.35,4.262c-4.997,9.848,3.944,79.298,7.8,79.298
		c3.855,0,1.607-35.353,7.486-48.874c5.878-13.521,28.513-1.764,47.767-1.764c19.253,0,41.887-11.758,47.767,1.764
		c5.878,13.521,3.63,48.874,7.485,48.874C160.667,107.957,169.608,38.507,164.611,28.659z"/>
        </g>
    </svg>
    <svg viewBox="0 0 196.651 196.651" height="100%" width="100%" pointer-events="none" display="block" id="man-6"  >
        <g>
            <g>
                <rect x="83.628" y="146.386" style="fill:#FDCC9B;" width="29.395" height="32.923"/>
                <path style="fill:#FCBC85;" d="M83.628,150.264c0,0,12.365,7.874,29.395,6.051v-9.929H83.628V150.264z"/>
                <ellipse style="fill:#FCBC85;" cx="41.242" cy="95.336" rx="14.343" ry="16.364"/>
                <ellipse style="fill:#FCBC85;" cx="155.409" cy="95.336" rx="14.343" ry="16.364"/>
                <path style="fill:#FDCC9B;" d="M155.352,64.08c0-24.104-17.637-41.74-57.026-41.74c-39.389,0-57.026,17.637-57.026,41.74
			c0,24.104-4.115,87.597,57.026,87.597C159.467,151.677,155.352,88.185,155.352,64.08z"/>
                <g>
                    <g>
                        <ellipse style="fill:#3B2519;" cx="70.55" cy="91.418" rx="6.173" ry="6.761"/>
                        <circle style="fill:#FFFFFF;" cx="67.859" cy="88.433" r="1.846"/>
                    </g>
                    <path style="fill:#86461B;" d="M60.675,74.662c2.919,1.46,7.606-4.96,18.335,0.625c1.956,1.018,3.123-8.708-8.377-8.708
				C60.675,66.579,58.911,73.781,60.675,74.662z"/>
                    <g>
                        <ellipse style="fill:#3B2519;" cx="126.864" cy="91.418" rx="6.173" ry="6.761"/>
                        <circle style="fill:#FFFFFF;" cx="124.173" cy="88.433" r="1.846"/>
                    </g>
                    <path style="fill:#86461B;" d="M135.977,74.662c-2.919,1.46-7.606-4.96-18.335,0.625c-1.956,1.018-3.123-8.708,8.378-8.708
				C135.977,66.579,137.74,73.781,135.977,74.662z"/>
                </g>
                <path style="fill:#FCBC85;" d="M98.326,115.198c-6.1,0-9.774-4.557-9.774-2.352c0,2.204,1.764,6.393,9.774,6.393
			c8.01,0,9.774-4.189,9.774-6.393C108.1,110.642,104.425,115.198,98.326,115.198z"/>
                <path style="fill:#FCBC85;" d="M98.326,135.469c-2.11,0-3.381-1.576-3.381-0.813c0,0.763,0.61,2.212,3.381,2.212
			c2.771,0,3.38-1.449,3.38-2.212C101.706,133.893,100.435,135.469,98.326,135.469z"/>
                <path style="fill:#F7945E;" d="M98.326,129.852c-9.668,0-15.493-3.937-15.493-2.939c0,0.997,2.796,4.924,15.493,4.924
			c12.697,0,15.493-3.927,15.493-4.924C113.818,125.914,107.994,129.852,98.326,129.852z"/>
            </g>
            <path style="fill:#D58E64;" d="M98.326,159.613v37.038H26.898C26.898,181.66,64.521,159.613,98.326,159.613z"/>
            <path style="fill:#D58E64;" d="M98.326,159.613v37.038h71.427C169.753,181.66,132.129,159.613,98.326,159.613z"/>
            <path style="fill:#BF805A;" d="M98.326,159.613c-7.19,0-14.552,1.005-21.689,2.721c0.048,0.063,7.917,10.213,21.689,10.213
		c12.754,0,21.233-8.692,22.462-10.03C113.41,160.686,105.775,159.613,98.326,159.613z"/>
            <path style="fill:#FDCC9B;" d="M83.628,160.895c0,0,4.299,5.332,14.697,5.332c10.398,0,14.698-5.332,14.698-5.332
		S97.774,155.344,83.628,160.895z"/>
            <path style="fill:#86461B;" d="M98.325,139.11v13.669c-30.717,0-40.857-16.378-43.861-20.943
		c-2.227-3.387,14.452,11.904,29.164,11.904C90.095,143.74,89.801,139.11,98.325,139.11z"/>
            <path style="fill:#86461B;" d="M98.325,139.11v13.669c30.718,0,40.858-16.378,43.861-20.943
		c2.227-3.387-14.452,11.904-29.164,11.904C106.556,143.74,106.85,139.11,98.325,139.11z"/>
            <path style="fill:#86461B;" d="M98.712,48.207V0C48.354,0,38.948,18.813,36.596,54.086c-2.352,35.274,2.958,47.417,6.476,47.372
		c3.518-0.046,1.627-40.44,6.458-49.136C58.349,36.449,74.113,48.207,98.712,48.207z"/>
            <path style="fill:#86461B;" d="M98.712,48.207V0c50.358,0,59.764,18.813,62.116,54.086c2.352,35.274-2.958,47.417-6.476,47.372
		c-3.518-0.046-1.627-40.44-6.458-49.136C139.076,36.449,123.311,48.207,98.712,48.207z"/>
            <path style="fill:#744A25;" d="M67.014,165.109c-22.206,7.502-40.115,21.199-40.115,31.542h40.117v-31.542H67.014z"/>
            <path style="fill:#573514;" d="M69.151,196.651v-33.805c0,0-5.732,2.205-7.716,3.233l-5.85,30.571H69.151z"/>
            <path style="fill:#744A25;" d="M129.638,165.109c22.206,7.502,40.115,21.199,40.115,31.542h-40.117v-31.542H129.638z"/>
            <path style="fill:#573514;" d="M127.5,196.651v-33.805c0,0,5.732,2.205,7.716,3.233l5.85,30.571H127.5z"/>
        </g>
    </svg>
    <svg viewBox="0 0 194.917 194.917" height="100%" width="100%" pointer-events="none" display="block" id="man-7"  >
        <g>
            <g>
                <rect x="82.761" y="144.651" style="fill:#FDCC9B;" width="29.395" height="32.923"/>
                <path style="fill:#FCBC85;" d="M82.762,148.529c0,0,12.364,7.874,29.394,6.051v-9.929H82.762V148.529z"/>
                <ellipse style="fill:#FCBC85;" cx="40.375" cy="93.602" rx="14.343" ry="16.364"/>
                <ellipse style="fill:#FCBC85;" cx="154.542" cy="93.602" rx="14.343" ry="16.364"/>
                <path style="fill:#FDCC9B;" d="M154.484,62.346c0-24.104-17.637-41.741-57.025-41.741c-39.39,0-57.026,17.637-57.026,41.741
			c0,24.104-4.115,87.597,57.026,87.597C158.6,149.943,154.484,86.45,154.484,62.346z"/>
                <g>
                    <g>
                        <ellipse style="fill:#3B2519;" cx="69.683" cy="89.684" rx="6.173" ry="6.761"/>
                        <circle style="fill:#FFFFFF;" cx="66.992" cy="86.698" r="1.846"/>
                    </g>
                    <path style="fill:#BF904B;" d="M59.808,72.928c2.919,1.459,7.606-4.96,18.335,0.625c1.956,1.018,3.123-8.708-8.377-8.708
				C59.808,64.845,58.044,72.047,59.808,72.928z"/>
                    <g>
                        <ellipse style="fill:#3B2519;" cx="125.997" cy="89.684" rx="6.173" ry="6.761"/>
                        <circle style="fill:#FFFFFF;" cx="123.305" cy="86.698" r="1.846"/>
                    </g>
                    <path style="fill:#BF904B;" d="M135.109,72.928c-2.919,1.459-7.607-4.96-18.335,0.625c-1.956,1.018-3.123-8.708,8.377-8.708
				C135.109,64.845,136.873,72.047,135.109,72.928z"/>
                </g>
                <path style="fill:#FCBC85;" d="M97.459,113.464c-6.1,0-9.774-4.557-9.774-2.352c0,2.204,1.764,6.394,9.774,6.394
			c8.01,0,9.773-4.189,9.773-6.394C107.232,108.907,103.558,113.464,97.459,113.464z"/>
                <path style="fill:#FCBC85;" d="M97.459,133.734c-2.11,0-3.381-1.575-3.381-0.813c0,0.763,0.609,2.212,3.381,2.212
			c2.77,0,3.38-1.449,3.38-2.212C100.839,132.159,99.568,133.734,97.459,133.734z"/>
                <path style="fill:#F7945E;" d="M97.459,128.117c-9.669,0-15.493-3.936-15.493-2.939c0,0.997,2.796,4.924,15.493,4.924
			c12.696,0,15.492-3.927,15.492-4.924C112.951,124.181,107.127,128.117,97.459,128.117z"/>
            </g>
            <path style="fill:#7A707B;" d="M97.459,157.88v37.037h71.427C168.886,179.926,131.263,157.88,97.459,157.88z"/>
            <path style="fill:#7A707B;" d="M97.459,157.88v37.037H26.031C26.031,179.926,63.654,157.88,97.459,157.88z"/>
            <path style="fill:#665D67;" d="M64.393,163.991l17.794,30.926h15.272v-4.461l-21.671-29.861
		C71.899,161.528,68.082,162.677,64.393,163.991z"/>
            <path style="fill:#665D67;" d="M130.524,163.991l-17.794,30.926H97.459v-4.461l21.67-29.861
		C123.018,161.528,126.835,162.677,130.524,163.991z"/>
            <path style="fill:#FFFFFF;" d="M72.645,161.399c6.691,11.021,18.784,29.982,24.814,33.518V157.88
		C89.213,157.88,80.743,159.198,72.645,161.399z"/>
            <path style="fill:#FFFFFF;" d="M122.272,161.399c-6.691,11.021-18.784,29.982-24.814,33.518V157.88
		C105.704,157.88,114.174,159.198,122.272,161.399z"/>
            <path style="fill:#C7C5C4;" d="M97.722,157.88c-7.191,0-14.552,1.005-21.689,2.72c0.048,0.063,7.916,10.214,21.689,10.214
		c12.754,0,21.232-8.693,22.462-10.031C112.806,158.952,105.172,157.88,97.722,157.88z"/>
            <path style="fill:#FDCC9B;" d="M82.761,159.162c0,0,4.299,5.89,14.697,5.89c10.398,0,14.697-5.891,14.697-5.891
		S96.907,153.609,82.761,159.162z"/>
            <path style="fill:#BF904B;" d="M97.459,0C12.948,0,27.177,96.444,41.721,96.444c3.709,0,1.168-48.532,7.972-47.649
		c6.803,0.883,18.812,3.841,47.767,3.841c28.953,0,40.963-2.958,47.766-3.841c6.803-0.882,4.263,47.649,7.972,47.649
		C167.74,96.444,181.969,0,97.459,0z"/>
        </g>
    </svg>
    <svg viewBox="0 0 205.032 205.032" height="100%" width="100%" pointer-events="none" display="block" id="man-8"  >
        <g>
            <g>
                <rect x="85.783" y="154.767" style="fill:#FDCC9B;" width="29.395" height="32.922"/>
                <path style="fill:#FCBC85;" d="M85.784,158.645c0,0,12.364,7.874,29.394,6.05v-9.928H85.784V158.645z"/>
                <ellipse style="fill:#FCBC85;" cx="43.397" cy="103.717" rx="14.343" ry="16.364"/>
                <ellipse style="fill:#FCBC85;" cx="157.565" cy="103.717" rx="14.343" ry="16.364"/>
                <path style="fill:#FDCC9B;" d="M157.507,72.462c0-24.103-17.637-41.741-57.025-41.741c-39.39,0-57.026,17.637-57.026,41.741
			c0,24.104-4.115,87.597,57.026,87.597C161.622,160.058,157.507,96.566,157.507,72.462z"/>
                <g>
                    <g>
                        <ellipse style="fill:#3B2519;" cx="72.705" cy="99.799" rx="6.173" ry="6.761"/>
                        <circle style="fill:#FFFFFF;" cx="70.014" cy="96.814" r="1.846"/>
                    </g>
                    <path style="fill:#D96E27;" d="M62.83,83.044c2.919,1.46,7.606-4.96,18.335,0.625c1.956,1.018,3.123-8.708-8.377-8.708
				C62.83,74.961,61.066,82.162,62.83,83.044z"/>
                    <g>
                        <ellipse style="fill:#3B2519;" cx="129.019" cy="99.799" rx="6.173" ry="6.761"/>
                        <circle style="fill:#FFFFFF;" cx="126.327" cy="96.814" r="1.846"/>
                    </g>
                    <path style="fill:#D96E27;" d="M138.132,83.044c-2.919,1.46-7.607-4.96-18.335,0.625c-1.956,1.018-3.123-8.708,8.377-8.708
				C138.132,74.961,139.895,82.162,138.132,83.044z"/>
                </g>
                <path style="fill:#FCBC85;" d="M100.481,123.579c-6.1,0-9.774-4.556-9.774-2.352c0,2.205,1.764,6.394,9.774,6.394
			c8.01,0,9.773-4.189,9.773-6.394C110.255,119.023,106.58,123.579,100.481,123.579z"/>
                <path style="fill:#FCBC85;" d="M100.481,143.85c-2.11,0-3.381-1.576-3.381-0.813s0.609,2.211,3.381,2.211
			c2.77,0,3.38-1.448,3.38-2.211S102.591,143.85,100.481,143.85z"/>
                <path style="fill:#F7945E;" d="M100.481,138.233c-9.669,0-15.493-3.937-15.493-2.939c0,0.998,2.796,4.924,15.493,4.924
			c12.696,0,15.492-3.926,15.492-4.924C115.974,134.296,110.149,138.233,100.481,138.233z"/>
            </g>
            <path style="fill:#B4DEF6;" d="M100.481,167.995v37.038H29.054C29.054,190.041,66.677,167.995,100.481,167.995z"/>
            <path style="fill:#B4DEF6;" d="M100.481,167.995v37.038h71.427C171.908,190.041,134.285,167.995,100.481,167.995z"/>
            <path style="fill:#FDCC9B;" d="M85.783,169.277c0,0,4.299,5.332,14.697,5.332c10.398,0,14.697-5.332,14.697-5.332
		S99.93,163.725,85.783,169.277z"/>
            <path style="fill:#D96E27;" d="M43.396,99.799c5.064,0,9.465-15.138,9.023-24.838c-0.44-9.701,5.645-16.755,17.594-22.046
		c0,0,34.229,9.7,58.16,9.7c31.391,0,23.064,36.891,28.771,37.185c5.707,0.294,11.88-42.035,5.266-66.285
		c0,0,10.142-5.292,13.228-11.905c3.087-6.614-7.968-0.441-17.873,0c0,0,17.604-11.464,18.4-19.4
		c0.796-7.936-32.339,8.377-69.23,4.409C69.845,2.649,39.37,23.238,37.87,54.678C36.547,82.395,38.782,99.799,43.396,99.799z"/>
            <path style="fill:#80CEF3;" d="M85.783,165.643l14.697,8.965l-15.492,15.433l-11.51-17.912
		C73.478,172.13,81.007,164.721,85.783,165.643z"/>
            <path style="fill:#80CEF3;" d="M115.178,165.643l-14.697,8.965l15.493,15.433l11.51-17.912
		C127.483,172.13,119.955,164.721,115.178,165.643z"/>
            <polygon style="fill:#65C8F2;" points="100.48,174.609 100.48,205.032 102.8,176.919 	"/>
            <circle style="fill:#65C8F2;" cx="97.1" cy="183.207" r="2.278"/>
            <circle style="fill:#65C8F2;" cx="97.1" cy="201.284" r="2.278"/>
        </g>
    </svg>
  </defs>
</svg>
